<?xml version="1.0" encoding="utf-8"?>
<!-- Generator: Adobe Illustrator 24.0.0, SVG Export Plug-In . SVG Version: 6.00 Build 0)  -->
<svg version="1.1" xmlns="http://www.w3.org/2000/svg" xmlns:xlink="http://www.w3.org/1999/xlink" x="0px" y="0px"
	 viewBox="0 0 500 500" style="enable-background:new 0 0 500 500;" xml:space="preserve">
<style type="text/css">
	.st0{fill:url(#SVGID_1_);}
	.st1{fill:url(#SVGID_2_);}
	.st2{fill:url(#SVGID_3_);}
	.st3{fill:url(#SVGID_4_);}
	.st4{fill:url(#SVGID_5_);}
	.st5{fill:url(#SVGID_6_);}
	.st6{fill:#FFFFFF;}
</style>
<g id="BACKGROUND">
</g>
<g id="OBJECTS">
</g>
<g id="TEXTS">
	<g>
		<g>
			<g>
				<g>
					<g>
						<linearGradient id="SVGID_1_" gradientUnits="userSpaceOnUse" x1="176.0051" y1="81.2553" x2="260.485" y2="206.6949">
							<stop  offset="2.776162e-03" style="stop-color:#E21C34"/>
							<stop  offset="1" style="stop-color:#500B28"/>
						</linearGradient>
						<path class="st0" d="M256.75,129.73h-62.69v103.89h13.56v-90.33h49.13c30.32,0,54.99,24.67,54.99,54.99
							c0,17.12-7.86,32.43-20.17,42.52l6.53,12.11c16.51-12.53,27.2-32.36,27.2-54.63C325.3,160.48,294.55,129.73,256.75,129.73z"/>
						<linearGradient id="SVGID_2_" gradientUnits="userSpaceOnUse" x1="147.0551" y1="100.752" x2="231.535" y2="226.1917">
							<stop  offset="2.776162e-03" style="stop-color:#E21C34"/>
							<stop  offset="1" style="stop-color:#500B28"/>
						</linearGradient>
						<path class="st1" d="M269.72,251.71c-4.16,1.01-8.5,1.56-12.96,1.56H237.9v13.56h18.85c6.8,0,13.37-1,19.58-2.85
							L269.72,251.71z"/>
					</g>
				</g>
			</g>
			<g>
				<g>
					<g>
						<linearGradient id="SVGID_3_" gradientUnits="userSpaceOnUse" x1="179.6788" y1="244.9851" x2="204.2159" y2="281.4189">
							<stop  offset="2.776162e-03" style="stop-color:#E21C34"/>
							<stop  offset="1" style="stop-color:#500B28"/>
						</linearGradient>
						<rect x="194.06" y="252.91" class="st2" width="13.56" height="47"/>
					</g>
				</g>
			</g>
			<g>
				<g>
					<linearGradient id="SVGID_4_" gradientUnits="userSpaceOnUse" x1="236.453" y1="162.0775" x2="284.4529" y2="257.3966">
						<stop  offset="0" style="stop-color:#FFFFFF"/>
						<stop  offset="1" style="stop-color:#5E5E5E"/>
					</linearGradient>
					<path class="st3" d="M287.17,244.06l-9.12-16.9c2.82-2.31,5.3-5.06,7.36-8.2c5.29-8.09,7.12-17.76,5.14-27.22
						c-4.08-19.53-23.3-32.11-42.83-28.03c-19.54,4.08-32.11,23.3-28.03,42.83c3.56,17.05,18.65,28.8,35.42,28.8
						c2.45,0,4.93-0.25,7.41-0.77c1.23-0.26,2.43-0.57,3.6-0.95l8.91,16.51l6.51,12.06c4.25-1.65,8.3-3.72,12.09-6.15L287.17,244.06
						z M274.05,211.53c-3.31,5.06-8.39,8.53-14.31,9.76c-12.22,2.55-24.23-5.31-26.78-17.53c-1.24-5.92-0.09-11.96,3.22-17.02
						c3.31-5.06,8.39-8.53,14.31-9.76c1.56-0.33,3.12-0.49,4.67-0.49c4.35,0,8.62,1.26,12.35,3.7c5.06,3.31,8.53,8.39,9.76,14.31
						C278.5,200.42,277.36,206.47,274.05,211.53z"/>
					<linearGradient id="SVGID_5_" gradientUnits="userSpaceOnUse" x1="225.6966" y1="229.0978" x2="225.6966" y2="260.4169">
						<stop  offset="0" style="stop-color:#FFFFFF"/>
						<stop  offset="1" style="stop-color:#5E5E5E"/>
					</linearGradient>
					<path class="st4" d="M218.92,219.63v33.64v13.56h13.56v-13.56V234C226.92,230.38,222.24,225.46,218.92,219.63z"/>
				</g>
				<linearGradient id="SVGID_6_" gradientUnits="userSpaceOnUse" x1="250.221" y1="195.4848" x2="269.5748" y2="195.4848">
					<stop  offset="0" style="stop-color:#FFFFFF"/>
					<stop  offset="1" style="stop-color:#5E5E5E"/>
				</linearGradient>
				<path class="st5" d="M259.9,185.81L259.9,185.81c1.66,4.48,5.19,8.02,9.68,9.68l0,0l0,0c-4.48,1.66-8.02,5.19-9.68,9.68l0,0l0,0
					c-1.66-4.48-5.19-8.02-9.68-9.68l0,0l0,0C254.7,193.83,258.24,190.29,259.9,185.81L259.9,185.81z"/>
			</g>
		</g>
		<g>
			<g>
				<path class="st6" d="M97.05,330.13c2.49-0.42,5.76-0.77,9.92-0.77c5.11,0,8.85,1.19,11.22,3.33c2.2,1.9,3.5,4.81,3.5,8.37
					c0,3.62-1.07,6.47-3.09,8.55c-2.73,2.91-7.19,4.4-12.23,4.4c-1.54,0-2.97-0.06-4.16-0.36v16.03h-5.17V330.13z M102.21,349.43
					c1.13,0.3,2.55,0.42,4.28,0.42c6.24,0,10.04-3.03,10.04-8.55c0-5.29-3.74-7.84-9.44-7.84c-2.26,0-3.98,0.18-4.87,0.42V349.43z"
					/>
				<path class="st6" d="M131.97,349.9c0-3.38-0.06-6.29-0.24-8.97h4.57l0.18,5.64h0.24c1.31-3.86,4.45-6.29,7.96-6.29
					c0.59,0,1.01,0.06,1.48,0.18v4.93c-0.53-0.12-1.07-0.18-1.78-0.18c-3.68,0-6.29,2.79-7.01,6.71c-0.12,0.71-0.24,1.54-0.24,2.43
					v15.32h-5.17V349.9z"/>
				<path class="st6" d="M161.9,332.86c0.06,1.78-1.25,3.21-3.33,3.21c-1.84,0-3.15-1.42-3.15-3.21c0-1.84,1.37-3.27,3.27-3.27
					C160.65,329.59,161.9,331.02,161.9,332.86z M156.08,369.68v-28.74h5.23v28.74H156.08z"/>
				<path class="st6" d="M174.43,348.71c0-2.97-0.06-5.4-0.24-7.78h4.57l0.24,4.63h0.18c1.6-2.73,4.28-5.29,9.03-5.29
					c3.92,0,6.89,2.38,8.14,5.76h0.12c0.89-1.6,2.02-2.85,3.21-3.74c1.72-1.31,3.62-2.02,6.35-2.02c3.8,0,9.44,2.49,9.44,12.47
					v16.93h-5.11v-16.27c0-5.52-2.02-8.85-6.24-8.85c-2.97,0-5.29,2.2-6.18,4.75c-0.24,0.71-0.42,1.66-0.42,2.61v17.76h-5.11v-17.22
					c0-4.57-2.02-7.9-6-7.9c-3.27,0-5.64,2.61-6.47,5.23c-0.3,0.77-0.42,1.66-0.42,2.55v17.34h-5.11V348.71z"/>
				<path class="st6" d="M231.32,356.26c0.12,7.07,4.63,9.98,9.86,9.98c3.74,0,6-0.65,7.96-1.48l0.89,3.74
					c-1.84,0.83-4.99,1.78-9.56,1.78c-8.85,0-14.13-5.82-14.13-14.49c0-8.67,5.11-15.5,13.48-15.5c9.38,0,11.88,8.25,11.88,13.54
					c0,1.07-0.12,1.9-0.18,2.43H231.32z M246.64,352.52c0.06-3.33-1.37-8.49-7.25-8.49c-5.29,0-7.6,4.87-8.02,8.49H246.64z"/>
				<path class="st6" d="M262.8,330.19c2.61-0.54,6.35-0.83,9.92-0.83c5.52,0,9.09,1.01,11.58,3.27c2.02,1.78,3.15,4.51,3.15,7.6
					c0,5.29-3.33,8.79-7.54,10.21v0.18c3.09,1.07,4.93,3.92,5.88,8.08c1.31,5.58,2.26,9.44,3.09,10.99h-5.35
					c-0.65-1.13-1.54-4.57-2.67-9.56c-1.19-5.52-3.33-7.6-8.02-7.78h-4.87v17.34h-5.17V330.19z M267.97,348.42h5.29
					c5.52,0,9.03-3.03,9.03-7.6c0-5.17-3.74-7.42-9.21-7.48c-2.49,0-4.28,0.24-5.11,0.47V348.42z"/>
				<path class="st6" d="M302.17,356.26c0.12,7.07,4.63,9.98,9.86,9.98c3.74,0,6-0.65,7.96-1.48l0.89,3.74
					c-1.84,0.83-4.99,1.78-9.56,1.78c-8.85,0-14.13-5.82-14.13-14.49c0-8.67,5.11-15.5,13.48-15.5c9.38,0,11.88,8.25,11.88,13.54
					c0,1.07-0.12,1.9-0.18,2.43H302.17z M317.49,352.52c0.06-3.33-1.37-8.49-7.24-8.49c-5.29,0-7.6,4.87-8.02,8.49H317.49z"/>
				<path class="st6" d="M336.38,356.26c0.12,7.07,4.63,9.98,9.86,9.98c3.74,0,6-0.65,7.96-1.48l0.89,3.74
					c-1.84,0.83-4.99,1.78-9.56,1.78c-8.85,0-14.13-5.82-14.13-14.49c0-8.67,5.11-15.5,13.48-15.5c9.38,0,11.88,8.25,11.88,13.54
					c0,1.07-0.12,1.9-0.18,2.43H336.38z M351.7,352.52c0.06-3.33-1.37-8.49-7.24-8.49c-5.29,0-7.6,4.87-8.02,8.49H351.7z"/>
				<path class="st6" d="M367.68,327.51h5.23v42.17h-5.23V327.51z"/>
				<path class="st6" d="M385.43,364.33c1.54,1.01,4.28,2.08,6.89,2.08c3.8,0,5.58-1.9,5.58-4.28c0-2.49-1.48-3.86-5.34-5.29
					c-5.17-1.84-7.6-4.69-7.6-8.14c0-4.63,3.74-8.43,9.92-8.43c2.91,0,5.46,0.83,7.07,1.78l-1.31,3.8
					c-1.13-0.71-3.21-1.66-5.88-1.66c-3.09,0-4.81,1.78-4.81,3.92c0,2.38,1.72,3.44,5.46,4.87c4.99,1.9,7.54,4.39,7.54,8.67
					c0,5.05-3.92,8.61-10.75,8.61c-3.15,0-6.06-0.77-8.08-1.96L385.43,364.33z"/>
			</g>
			<g>
				<path class="st6" d="M97.05,330.13c2.49-0.42,5.76-0.77,9.92-0.77c5.11,0,8.85,1.19,11.22,3.33c2.2,1.9,3.5,4.81,3.5,8.37
					c0,3.62-1.07,6.47-3.09,8.55c-2.73,2.91-7.19,4.4-12.23,4.4c-1.54,0-2.97-0.06-4.16-0.36v16.03h-5.17V330.13z M102.21,349.43
					c1.13,0.3,2.55,0.42,4.28,0.42c6.24,0,10.04-3.03,10.04-8.55c0-5.29-3.74-7.84-9.44-7.84c-2.26,0-3.98,0.18-4.87,0.42V349.43z"
					/>
				<path class="st6" d="M131.97,349.9c0-3.38-0.06-6.29-0.24-8.97h4.57l0.18,5.64h0.24c1.31-3.86,4.45-6.29,7.96-6.29
					c0.59,0,1.01,0.06,1.48,0.18v4.93c-0.53-0.12-1.07-0.18-1.78-0.18c-3.68,0-6.29,2.79-7.01,6.71c-0.12,0.71-0.24,1.54-0.24,2.43
					v15.32h-5.17V349.9z"/>
				<path class="st6" d="M161.9,332.86c0.06,1.78-1.25,3.21-3.33,3.21c-1.84,0-3.15-1.42-3.15-3.21c0-1.84,1.37-3.27,3.27-3.27
					C160.65,329.59,161.9,331.02,161.9,332.86z M156.08,369.68v-28.74h5.23v28.74H156.08z"/>
				<path class="st6" d="M174.43,348.71c0-2.97-0.06-5.4-0.24-7.78h4.57l0.24,4.63h0.18c1.6-2.73,4.28-5.29,9.03-5.29
					c3.92,0,6.89,2.38,8.14,5.76h0.12c0.89-1.6,2.02-2.85,3.21-3.74c1.72-1.31,3.62-2.02,6.35-2.02c3.8,0,9.44,2.49,9.44,12.47
					v16.93h-5.11v-16.27c0-5.52-2.02-8.85-6.24-8.85c-2.97,0-5.29,2.2-6.18,4.75c-0.24,0.71-0.42,1.66-0.42,2.61v17.76h-5.11v-17.22
					c0-4.57-2.02-7.9-6-7.9c-3.27,0-5.64,2.61-6.47,5.23c-0.3,0.77-0.42,1.66-0.42,2.55v17.34h-5.11V348.71z"/>
				<path class="st6" d="M231.32,356.26c0.12,7.07,4.63,9.98,9.86,9.98c3.74,0,6-0.65,7.96-1.48l0.89,3.74
					c-1.84,0.83-4.99,1.78-9.56,1.78c-8.85,0-14.13-5.82-14.13-14.49c0-8.67,5.11-15.5,13.48-15.5c9.38,0,11.88,8.25,11.88,13.54
					c0,1.07-0.12,1.9-0.18,2.43H231.32z M246.64,352.52c0.06-3.33-1.37-8.49-7.25-8.49c-5.29,0-7.6,4.87-8.02,8.49H246.64z"/>
				<path class="st6" d="M262.8,330.19c2.61-0.54,6.35-0.83,9.92-0.83c5.52,0,9.09,1.01,11.58,3.27c2.02,1.78,3.15,4.51,3.15,7.6
					c0,5.29-3.33,8.79-7.54,10.21v0.18c3.09,1.07,4.93,3.92,5.88,8.08c1.31,5.58,2.26,9.44,3.09,10.99h-5.35
					c-0.65-1.13-1.54-4.57-2.67-9.56c-1.19-5.52-3.33-7.6-8.02-7.78h-4.87v17.34h-5.17V330.19z M267.97,348.42h5.29
					c5.52,0,9.03-3.03,9.03-7.6c0-5.17-3.74-7.42-9.21-7.48c-2.49,0-4.28,0.24-5.11,0.47V348.42z"/>
				<path class="st6" d="M302.17,356.26c0.12,7.07,4.63,9.98,9.86,9.98c3.74,0,6-0.65,7.96-1.48l0.89,3.74
					c-1.84,0.83-4.99,1.78-9.56,1.78c-8.85,0-14.13-5.82-14.13-14.49c0-8.67,5.11-15.5,13.48-15.5c9.38,0,11.88,8.25,11.88,13.54
					c0,1.07-0.12,1.9-0.18,2.43H302.17z M317.49,352.52c0.06-3.33-1.37-8.49-7.24-8.49c-5.29,0-7.6,4.87-8.02,8.49H317.49z"/>
				<path class="st6" d="M336.38,356.26c0.12,7.07,4.63,9.98,9.86,9.98c3.74,0,6-0.65,7.96-1.48l0.89,3.74
					c-1.84,0.83-4.99,1.78-9.56,1.78c-8.85,0-14.13-5.82-14.13-14.49c0-8.67,5.11-15.5,13.48-15.5c9.38,0,11.88,8.25,11.88,13.54
					c0,1.07-0.12,1.9-0.18,2.43H336.38z M351.7,352.52c0.06-3.33-1.37-8.49-7.24-8.49c-5.29,0-7.6,4.87-8.02,8.49H351.7z"/>
				<path class="st6" d="M367.68,327.51h5.23v42.17h-5.23V327.51z"/>
				<path class="st6" d="M385.43,364.33c1.54,1.01,4.28,2.08,6.89,2.08c3.8,0,5.58-1.9,5.58-4.28c0-2.49-1.48-3.86-5.34-5.29
					c-5.17-1.84-7.6-4.69-7.6-8.14c0-4.63,3.74-8.43,9.92-8.43c2.91,0,5.46,0.83,7.07,1.78l-1.31,3.8
					c-1.13-0.71-3.21-1.66-5.88-1.66c-3.09,0-4.81,1.78-4.81,3.92c0,2.38,1.72,3.44,5.46,4.87c4.99,1.9,7.54,4.39,7.54,8.67
					c0,5.05-3.92,8.61-10.75,8.61c-3.15,0-6.06-0.77-8.08-1.96L385.43,364.33z"/>
			</g>
		</g>
	</g>
</g>
</svg>
